<svg xmlns="http://www.w3.org/2000/svg" width="1600" height="900" viewBox="0 0 1600 900">
  <defs>
    <linearGradient id="bg" x1="0" y1="0" x2="1" y2="1">
      <stop offset="0" stop-color="#05060a"/>
      <stop offset="0.55" stop-color="#0b0d18"/>
      <stop offset="1" stop-color="#130a17"/>
    </linearGradient>
    <radialGradient id="glow" cx="35%" cy="30%" r="70%">
      <stop offset="0" stop-color="#00f5ff" stop-opacity="0.28"/>
      <stop offset="0.45" stop-color="#7c5cff" stop-opacity="0.16"/>
      <stop offset="1" stop-color="#ff3df2" stop-opacity="0"/>
    </radialGradient>
    <filter id="grain" x="-10%" y="-10%" width="120%" height="120%">
      <feTurbulence type="fractalNoise" baseFrequency="0.7" numOctaves="2" stitchTiles="stitch" result="n"/>
      <feColorMatrix type="matrix" values="
        1 0 0 0 0
        0 1 0 0 0
        0 0 1 0 0
        0 0 0 0.08 0" in="n" result="ng"/>
      <feBlend mode="overlay" in="SourceGraphic" in2="ng"/>
    </filter>
    <linearGradient id="banana" x1="0" y1="0" x2="1" y2="1">
      <stop offset="0" stop-color="#FFE36A"/>
      <stop offset="0.55" stop-color="#FFD000"/>
      <stop offset="1" stop-color="#FF8A00"/>
    </linearGradient>
  </defs>

  <rect width="1600" height="900" fill="url(#bg)"/>
  <rect width="1600" height="900" fill="url(#glow)"/>

  <!-- Neon banana mark -->
  <g transform="translate(1180 120) rotate(10)">
    <path d="M110 70c-70 120-95 235-70 345 17 76 69 138 145 165 65 23 127 18 186-11 11-6 15-19 9-30-6-11-19-15-30-9-46 24-94 27-150 7-59-21-98-70-112-133-21-95 2-190 63-296 7-12 3-26-9-33-12-7-26-3-33 9z"
          fill="none" stroke="url(#banana)" stroke-width="26" stroke-linecap="round"/>
    <circle cx="106" cy="66" r="18" fill="#2a2a2a" opacity="0.55"/>
    <circle cx="106" cy="66" r="9" fill="#1d1d1d" opacity="0.7"/>
  </g>

  <!-- Title -->
  <g filter="url(#grain)">
    <text x="110" y="470" fill="#e9eefc" font-size="86" font-weight="800" font-family="system-ui, -apple-system, Segoe UI, Roboto, Helvetica, Arial">
      Nano Banana 4
    </text>
    <text x="110" y="540" fill="rgba(233,238,252,0.62)" font-size="34" font-weight="600" font-family="system-ui, -apple-system, Segoe UI, Roboto, Helvetica, Arial">
      Imagen · clean backgrounds
    </text>
  </g>

  <!-- Frame -->
  <rect x="44" y="44" width="1512" height="812" rx="34" fill="none" stroke="rgba(255,255,255,0.10)" stroke-width="2"/>
</svg>
